<mxfile host="app.diagrams.net" agent="Mozilla/5.0 (Windows NT 10.0; Win64; x64) AppleWebKit/537.36 (KHTML, like Gecko) Chrome/133.0.0.0 Safari/537.36" version="26.0.16">
  <diagram id="C5RBs43oDa-KdzZeNtuy" name="Page-1">
    <mxGraphModel dx="890" dy="522" grid="1" gridSize="10" guides="1" tooltips="1" connect="1" arrows="1" fold="1" page="0" pageScale="1" pageWidth="827" pageHeight="1169" math="0" shadow="0">
      <root>
        <mxCell id="WIyWlLk6GJQsqaUBKTNV-0" />
        <mxCell id="WIyWlLk6GJQsqaUBKTNV-1" parent="WIyWlLk6GJQsqaUBKTNV-0" />
        <mxCell id="u4UBgWqbXqTNb08_oveg-127" value="" style="edgeStyle=orthogonalEdgeStyle;rounded=0;orthogonalLoop=1;jettySize=auto;html=1;" parent="WIyWlLk6GJQsqaUBKTNV-1" source="9GIwrj6_YMxmyssUa3dc-0" target="u4UBgWqbXqTNb08_oveg-124" edge="1">
          <mxGeometry relative="1" as="geometry" />
        </mxCell>
        <mxCell id="9GIwrj6_YMxmyssUa3dc-0" value="智能体" style="rounded=1;whiteSpace=wrap;html=1;fontSize=12;glass=0;strokeWidth=1;shadow=0;fillColor=#d5e8d4;strokeColor=#82b366;" parent="WIyWlLk6GJQsqaUBKTNV-1" vertex="1">
          <mxGeometry x="1820" y="280" width="80" height="40" as="geometry" />
        </mxCell>
        <mxCell id="u4UBgWqbXqTNb08_oveg-114" value="" style="edgeStyle=orthogonalEdgeStyle;rounded=0;orthogonalLoop=1;jettySize=auto;html=1;" parent="WIyWlLk6GJQsqaUBKTNV-1" source="9GIwrj6_YMxmyssUa3dc-1" target="u4UBgWqbXqTNb08_oveg-113" edge="1">
          <mxGeometry relative="1" as="geometry" />
        </mxCell>
        <mxCell id="9GIwrj6_YMxmyssUa3dc-1" value="神经网络" style="rounded=1;whiteSpace=wrap;html=1;fontSize=12;glass=0;strokeWidth=1;shadow=0;" parent="WIyWlLk6GJQsqaUBKTNV-1" vertex="1">
          <mxGeometry x="420" y="1560" width="80" height="40" as="geometry" />
        </mxCell>
        <mxCell id="u4UBgWqbXqTNb08_oveg-117" value="" style="edgeStyle=orthogonalEdgeStyle;rounded=0;orthogonalLoop=1;jettySize=auto;html=1;" parent="WIyWlLk6GJQsqaUBKTNV-1" source="9GIwrj6_YMxmyssUa3dc-2" target="9GIwrj6_YMxmyssUa3dc-6" edge="1">
          <mxGeometry relative="1" as="geometry" />
        </mxCell>
        <mxCell id="9GIwrj6_YMxmyssUa3dc-2" value="深度学习" style="rounded=1;whiteSpace=wrap;html=1;fontSize=12;glass=0;strokeWidth=1;shadow=0;" parent="WIyWlLk6GJQsqaUBKTNV-1" vertex="1">
          <mxGeometry x="420" y="1440" width="80" height="40" as="geometry" />
        </mxCell>
        <mxCell id="9GIwrj6_YMxmyssUa3dc-5" style="edgeStyle=orthogonalEdgeStyle;rounded=0;orthogonalLoop=1;jettySize=auto;html=1;exitX=0.5;exitY=1;exitDx=0;exitDy=0;entryX=0;entryY=0.5;entryDx=0;entryDy=0;" parent="WIyWlLk6GJQsqaUBKTNV-1" source="9GIwrj6_YMxmyssUa3dc-3" target="9GIwrj6_YMxmyssUa3dc-4" edge="1">
          <mxGeometry relative="1" as="geometry" />
        </mxCell>
        <mxCell id="u4UBgWqbXqTNb08_oveg-149" style="edgeStyle=orthogonalEdgeStyle;rounded=0;orthogonalLoop=1;jettySize=auto;html=1;exitX=0.5;exitY=0;exitDx=0;exitDy=0;entryX=0.5;entryY=1;entryDx=0;entryDy=0;" parent="WIyWlLk6GJQsqaUBKTNV-1" source="9GIwrj6_YMxmyssUa3dc-3" target="u4UBgWqbXqTNb08_oveg-1" edge="1">
          <mxGeometry relative="1" as="geometry">
            <Array as="points">
              <mxPoint x="900" y="960" />
              <mxPoint x="1040" y="960" />
            </Array>
          </mxGeometry>
        </mxCell>
        <mxCell id="9GIwrj6_YMxmyssUa3dc-3" value="向量数据库" style="rounded=1;whiteSpace=wrap;html=1;fontSize=12;glass=0;strokeWidth=1;shadow=0;" parent="WIyWlLk6GJQsqaUBKTNV-1" vertex="1">
          <mxGeometry x="860" y="980" width="80" height="40" as="geometry" />
        </mxCell>
        <mxCell id="9GIwrj6_YMxmyssUa3dc-4" value="QDrant" style="rounded=1;whiteSpace=wrap;html=1;fontSize=12;glass=0;strokeWidth=1;shadow=0;" parent="WIyWlLk6GJQsqaUBKTNV-1" vertex="1">
          <mxGeometry x="920" y="1040" width="60" height="40" as="geometry" />
        </mxCell>
        <mxCell id="u4UBgWqbXqTNb08_oveg-135" value="" style="edgeStyle=orthogonalEdgeStyle;rounded=0;orthogonalLoop=1;jettySize=auto;html=1;" parent="WIyWlLk6GJQsqaUBKTNV-1" source="9GIwrj6_YMxmyssUa3dc-6" target="9GIwrj6_YMxmyssUa3dc-7" edge="1">
          <mxGeometry relative="1" as="geometry" />
        </mxCell>
        <mxCell id="AbXjkJ7tqVWqf835GHby-1" style="edgeStyle=orthogonalEdgeStyle;rounded=0;orthogonalLoop=1;jettySize=auto;html=1;exitX=0.75;exitY=1;exitDx=0;exitDy=0;entryX=0;entryY=0.5;entryDx=0;entryDy=0;" edge="1" parent="WIyWlLk6GJQsqaUBKTNV-1" source="9GIwrj6_YMxmyssUa3dc-6" target="AbXjkJ7tqVWqf835GHby-0">
          <mxGeometry relative="1" as="geometry" />
        </mxCell>
        <mxCell id="AbXjkJ7tqVWqf835GHby-3" style="edgeStyle=orthogonalEdgeStyle;rounded=0;orthogonalLoop=1;jettySize=auto;html=1;exitX=0.75;exitY=1;exitDx=0;exitDy=0;entryX=0;entryY=0.5;entryDx=0;entryDy=0;" edge="1" parent="WIyWlLk6GJQsqaUBKTNV-1" source="9GIwrj6_YMxmyssUa3dc-6" target="AbXjkJ7tqVWqf835GHby-2">
          <mxGeometry relative="1" as="geometry" />
        </mxCell>
        <mxCell id="9GIwrj6_YMxmyssUa3dc-6" value="Transformer" style="rounded=1;whiteSpace=wrap;html=1;fontSize=12;glass=0;strokeWidth=1;shadow=0;" parent="WIyWlLk6GJQsqaUBKTNV-1" vertex="1">
          <mxGeometry x="420" y="1040" width="80" height="40" as="geometry" />
        </mxCell>
        <mxCell id="u4UBgWqbXqTNb08_oveg-143" style="edgeStyle=orthogonalEdgeStyle;rounded=0;orthogonalLoop=1;jettySize=auto;html=1;exitX=0.5;exitY=0;exitDx=0;exitDy=0;entryX=0.5;entryY=1;entryDx=0;entryDy=0;" parent="WIyWlLk6GJQsqaUBKTNV-1" source="9GIwrj6_YMxmyssUa3dc-7" target="u4UBgWqbXqTNb08_oveg-1" edge="1">
          <mxGeometry relative="1" as="geometry">
            <Array as="points">
              <mxPoint x="460" y="960" />
              <mxPoint x="1040" y="960" />
            </Array>
          </mxGeometry>
        </mxCell>
        <mxCell id="9GIwrj6_YMxmyssUa3dc-7" value="GPT" style="rounded=1;whiteSpace=wrap;html=1;fontSize=12;glass=0;strokeWidth=1;shadow=0;" parent="WIyWlLk6GJQsqaUBKTNV-1" vertex="1">
          <mxGeometry x="440" y="980" width="40" height="40" as="geometry" />
        </mxCell>
        <mxCell id="u4UBgWqbXqTNb08_oveg-137" style="edgeStyle=orthogonalEdgeStyle;rounded=0;orthogonalLoop=1;jettySize=auto;html=1;exitX=0.5;exitY=0;exitDx=0;exitDy=0;entryX=0.5;entryY=1;entryDx=0;entryDy=0;" parent="WIyWlLk6GJQsqaUBKTNV-1" source="u4UBgWqbXqTNb08_oveg-0" target="u4UBgWqbXqTNb08_oveg-1" edge="1">
          <mxGeometry relative="1" as="geometry" />
        </mxCell>
        <mxCell id="u4UBgWqbXqTNb08_oveg-138" value="预训练" style="edgeLabel;html=1;align=center;verticalAlign=middle;resizable=0;points=[];" parent="u4UBgWqbXqTNb08_oveg-137" vertex="1" connectable="0">
          <mxGeometry x="0.316" y="-1" relative="1" as="geometry">
            <mxPoint x="-1" y="32" as="offset" />
          </mxGeometry>
        </mxCell>
        <mxCell id="u4UBgWqbXqTNb08_oveg-0" value="模型代码" style="rounded=1;whiteSpace=wrap;html=1;fillColor=#d5e8d4;strokeColor=#82b366;" parent="WIyWlLk6GJQsqaUBKTNV-1" vertex="1">
          <mxGeometry x="1000" y="980" width="80" height="40" as="geometry" />
        </mxCell>
        <mxCell id="u4UBgWqbXqTNb08_oveg-5" value="" style="edgeStyle=orthogonalEdgeStyle;rounded=0;orthogonalLoop=1;jettySize=auto;html=1;" parent="WIyWlLk6GJQsqaUBKTNV-1" source="u4UBgWqbXqTNb08_oveg-1" target="u4UBgWqbXqTNb08_oveg-4" edge="1">
          <mxGeometry relative="1" as="geometry" />
        </mxCell>
        <mxCell id="u4UBgWqbXqTNb08_oveg-23" value="后训练" style="edgeLabel;html=1;align=center;verticalAlign=middle;resizable=0;points=[];" parent="u4UBgWqbXqTNb08_oveg-5" vertex="1" connectable="0">
          <mxGeometry x="-0.435" y="-1" relative="1" as="geometry">
            <mxPoint x="-1" y="-135" as="offset" />
          </mxGeometry>
        </mxCell>
        <mxCell id="u4UBgWqbXqTNb08_oveg-29" value="" style="edgeStyle=orthogonalEdgeStyle;rounded=0;orthogonalLoop=1;jettySize=auto;html=1;" parent="WIyWlLk6GJQsqaUBKTNV-1" source="u4UBgWqbXqTNb08_oveg-1" target="u4UBgWqbXqTNb08_oveg-28" edge="1">
          <mxGeometry relative="1" as="geometry" />
        </mxCell>
        <mxCell id="u4UBgWqbXqTNb08_oveg-1" value="基础模型" style="rounded=1;whiteSpace=wrap;html=1;fillColor=#d5e8d4;strokeColor=#82b366;" parent="WIyWlLk6GJQsqaUBKTNV-1" vertex="1">
          <mxGeometry x="1000" y="800" width="80" height="40" as="geometry" />
        </mxCell>
        <mxCell id="u4UBgWqbXqTNb08_oveg-35" value="" style="edgeStyle=orthogonalEdgeStyle;rounded=0;orthogonalLoop=1;jettySize=auto;html=1;" parent="WIyWlLk6GJQsqaUBKTNV-1" source="u4UBgWqbXqTNb08_oveg-4" target="u4UBgWqbXqTNb08_oveg-34" edge="1">
          <mxGeometry relative="1" as="geometry" />
        </mxCell>
        <mxCell id="u4UBgWqbXqTNb08_oveg-99" style="edgeStyle=orthogonalEdgeStyle;rounded=0;orthogonalLoop=1;jettySize=auto;html=1;exitX=0.5;exitY=0;exitDx=0;exitDy=0;entryX=0.5;entryY=1;entryDx=0;entryDy=0;" parent="WIyWlLk6GJQsqaUBKTNV-1" source="u4UBgWqbXqTNb08_oveg-4" target="u4UBgWqbXqTNb08_oveg-120" edge="1">
          <mxGeometry relative="1" as="geometry">
            <mxPoint x="1040" y="430" as="targetPoint" />
          </mxGeometry>
        </mxCell>
        <mxCell id="u4UBgWqbXqTNb08_oveg-4" value="LLM" style="rounded=1;whiteSpace=wrap;html=1;fillColor=#d5e8d4;strokeColor=#82b366;" parent="WIyWlLk6GJQsqaUBKTNV-1" vertex="1">
          <mxGeometry x="1000" y="460" width="80" height="40" as="geometry" />
        </mxCell>
        <mxCell id="u4UBgWqbXqTNb08_oveg-144" style="edgeStyle=orthogonalEdgeStyle;rounded=0;orthogonalLoop=1;jettySize=auto;html=1;exitX=0.5;exitY=0;exitDx=0;exitDy=0;" parent="WIyWlLk6GJQsqaUBKTNV-1" source="u4UBgWqbXqTNb08_oveg-8" edge="1">
          <mxGeometry relative="1" as="geometry">
            <mxPoint x="1040" y="840" as="targetPoint" />
            <Array as="points">
              <mxPoint x="740" y="960" />
              <mxPoint x="1040" y="960" />
            </Array>
          </mxGeometry>
        </mxCell>
        <mxCell id="u4UBgWqbXqTNb08_oveg-8" value="Common Crawl 等公开数据集" style="rounded=1;whiteSpace=wrap;html=1;align=center;" parent="WIyWlLk6GJQsqaUBKTNV-1" vertex="1">
          <mxGeometry x="680" y="980" width="120" height="40" as="geometry" />
        </mxCell>
        <mxCell id="u4UBgWqbXqTNb08_oveg-151" style="edgeStyle=orthogonalEdgeStyle;rounded=0;orthogonalLoop=1;jettySize=auto;html=1;exitX=0.5;exitY=0;exitDx=0;exitDy=0;entryX=0.5;entryY=1;entryDx=0;entryDy=0;" parent="WIyWlLk6GJQsqaUBKTNV-1" source="u4UBgWqbXqTNb08_oveg-10" target="u4UBgWqbXqTNb08_oveg-8" edge="1">
          <mxGeometry relative="1" as="geometry" />
        </mxCell>
        <mxCell id="u4UBgWqbXqTNb08_oveg-10" value="数万亿级别的 Token" style="text;html=1;align=left;verticalAlign=middle;whiteSpace=wrap;rounded=0;fillColor=#fff2cc;strokeColor=#d6b656;" parent="WIyWlLk6GJQsqaUBKTNV-1" vertex="1">
          <mxGeometry x="680" y="1040" width="120" height="40" as="geometry" />
        </mxCell>
        <mxCell id="xBU8r5VywiUFEwU285NF-0" style="edgeStyle=orthogonalEdgeStyle;rounded=0;orthogonalLoop=1;jettySize=auto;html=1;exitX=1;exitY=0.5;exitDx=0;exitDy=0;" parent="WIyWlLk6GJQsqaUBKTNV-1" source="u4UBgWqbXqTNb08_oveg-12" edge="1">
          <mxGeometry relative="1" as="geometry">
            <mxPoint x="1020" y="920" as="targetPoint" />
          </mxGeometry>
        </mxCell>
        <mxCell id="u4UBgWqbXqTNb08_oveg-12" value="指令微调，也被称为监督微调，缩写为 IFT 或 &lt;span class=&quot;&quot;&gt;SFT&lt;/span&gt;" style="text;html=1;align=left;verticalAlign=middle;whiteSpace=wrap;rounded=0;fillColor=#fff2cc;strokeColor=#d6b656;" parent="WIyWlLk6GJQsqaUBKTNV-1" vertex="1">
          <mxGeometry x="680" y="900" width="280" height="40" as="geometry" />
        </mxCell>
        <mxCell id="u4UBgWqbXqTNb08_oveg-146" style="edgeStyle=orthogonalEdgeStyle;rounded=0;orthogonalLoop=1;jettySize=auto;html=1;exitX=1;exitY=0.5;exitDx=0;exitDy=0;" parent="WIyWlLk6GJQsqaUBKTNV-1" source="u4UBgWqbXqTNb08_oveg-14" edge="1">
          <mxGeometry relative="1" as="geometry">
            <mxPoint x="990" y="920" as="targetPoint" />
          </mxGeometry>
        </mxCell>
        <mxCell id="u4UBgWqbXqTNb08_oveg-14" value="损失函数" style="text;html=1;align=left;verticalAlign=middle;whiteSpace=wrap;rounded=0;fillColor=#fff2cc;strokeColor=#d6b656;" parent="WIyWlLk6GJQsqaUBKTNV-1" vertex="1">
          <mxGeometry x="910" y="860" width="50" height="40" as="geometry" />
        </mxCell>
        <mxCell id="u4UBgWqbXqTNb08_oveg-16" value="文档序列中的下一个 Token" style="rounded=1;whiteSpace=wrap;html=1;" parent="WIyWlLk6GJQsqaUBKTNV-1" vertex="1">
          <mxGeometry x="1220" y="800" width="80" height="40" as="geometry" />
        </mxCell>
        <mxCell id="u4UBgWqbXqTNb08_oveg-159" style="edgeStyle=orthogonalEdgeStyle;rounded=0;orthogonalLoop=1;jettySize=auto;html=1;exitX=1;exitY=0.5;exitDx=0;exitDy=0;" parent="WIyWlLk6GJQsqaUBKTNV-1" source="u4UBgWqbXqTNb08_oveg-40" edge="1">
          <mxGeometry relative="1" as="geometry">
            <mxPoint x="990" y="580" as="targetPoint" />
            <mxPoint x="960" y="530" as="sourcePoint" />
          </mxGeometry>
        </mxCell>
        <mxCell id="u4UBgWqbXqTNb08_oveg-147" style="edgeStyle=orthogonalEdgeStyle;rounded=0;orthogonalLoop=1;jettySize=auto;html=1;exitX=1;exitY=0.5;exitDx=0;exitDy=0;" parent="WIyWlLk6GJQsqaUBKTNV-1" source="u4UBgWqbXqTNb08_oveg-28" target="u4UBgWqbXqTNb08_oveg-16" edge="1">
          <mxGeometry relative="1" as="geometry" />
        </mxCell>
        <mxCell id="u4UBgWqbXqTNb08_oveg-148" value="自回归预测" style="edgeLabel;html=1;align=center;verticalAlign=middle;resizable=0;points=[];" parent="u4UBgWqbXqTNb08_oveg-147" vertex="1" connectable="0">
          <mxGeometry x="-0.2367" relative="1" as="geometry">
            <mxPoint x="9" as="offset" />
          </mxGeometry>
        </mxCell>
        <mxCell id="u4UBgWqbXqTNb08_oveg-28" value="目标" style="rounded=1;whiteSpace=wrap;html=1;" parent="WIyWlLk6GJQsqaUBKTNV-1" vertex="1">
          <mxGeometry x="1100" y="800" width="40" height="40" as="geometry" />
        </mxCell>
        <mxCell id="u4UBgWqbXqTNb08_oveg-34" value="目标" style="rounded=1;whiteSpace=wrap;html=1;" parent="WIyWlLk6GJQsqaUBKTNV-1" vertex="1">
          <mxGeometry x="940" y="460" width="40" height="40" as="geometry" />
        </mxCell>
        <mxCell id="u4UBgWqbXqTNb08_oveg-37" value="" style="edgeStyle=orthogonalEdgeStyle;rounded=0;orthogonalLoop=1;jettySize=auto;html=1;strokeColor=default;strokeWidth=1;exitX=1;exitY=0.5;exitDx=0;exitDy=0;" parent="WIyWlLk6GJQsqaUBKTNV-1" source="u4UBgWqbXqTNb08_oveg-36" target="u4UBgWqbXqTNb08_oveg-34" edge="1">
          <mxGeometry relative="1" as="geometry" />
        </mxCell>
        <mxCell id="u4UBgWqbXqTNb08_oveg-36" value="使模型具备更符合人类期望的行为" style="text;html=1;align=left;verticalAlign=middle;whiteSpace=wrap;rounded=0;fillColor=#fff2cc;strokeColor=#d6b656;" parent="WIyWlLk6GJQsqaUBKTNV-1" vertex="1">
          <mxGeometry x="820" y="460" width="100" height="40" as="geometry" />
        </mxCell>
        <mxCell id="xBU8r5VywiUFEwU285NF-1" style="edgeStyle=orthogonalEdgeStyle;rounded=0;orthogonalLoop=1;jettySize=auto;html=1;exitX=1;exitY=0.5;exitDx=0;exitDy=0;" parent="WIyWlLk6GJQsqaUBKTNV-1" source="u4UBgWqbXqTNb08_oveg-38" edge="1">
          <mxGeometry relative="1" as="geometry">
            <mxPoint x="1020" y="580" as="targetPoint" />
          </mxGeometry>
        </mxCell>
        <mxCell id="xBU8r5VywiUFEwU285NF-2" style="edgeStyle=orthogonalEdgeStyle;rounded=0;orthogonalLoop=1;jettySize=auto;html=1;exitX=0.75;exitY=1;exitDx=0;exitDy=0;" parent="WIyWlLk6GJQsqaUBKTNV-1" source="u4UBgWqbXqTNb08_oveg-38" edge="1">
          <mxGeometry relative="1" as="geometry">
            <mxPoint x="850" y="690" as="targetPoint" />
          </mxGeometry>
        </mxCell>
        <mxCell id="u4UBgWqbXqTNb08_oveg-38" value="基于人类反馈的强化学习。更符合人类的阅读偏好" style="text;html=1;align=left;verticalAlign=middle;whiteSpace=wrap;rounded=0;fillColor=#fff2cc;strokeColor=#d6b656;" parent="WIyWlLk6GJQsqaUBKTNV-1" vertex="1">
          <mxGeometry x="640" y="560" width="280" height="40" as="geometry" />
        </mxCell>
        <mxCell id="u4UBgWqbXqTNb08_oveg-40" value="指令调优。核心思想是在模型中加入特定的格式，使其能够理解并响应指令。格式良好" style="text;html=1;align=left;verticalAlign=middle;whiteSpace=wrap;rounded=0;fillColor=#fff2cc;strokeColor=#d6b656;" parent="WIyWlLk6GJQsqaUBKTNV-1" vertex="1">
          <mxGeometry x="640" y="520" width="280" height="40" as="geometry" />
        </mxCell>
        <mxCell id="u4UBgWqbXqTNb08_oveg-50" style="edgeStyle=orthogonalEdgeStyle;rounded=0;orthogonalLoop=1;jettySize=auto;html=1;exitX=1;exitY=0.5;exitDx=0;exitDy=0;entryX=0;entryY=0.5;entryDx=0;entryDy=0;" parent="WIyWlLk6GJQsqaUBKTNV-1" source="u4UBgWqbXqTNb08_oveg-46" target="u4UBgWqbXqTNb08_oveg-54" edge="1">
          <mxGeometry relative="1" as="geometry">
            <mxPoint x="590" y="720" as="targetPoint" />
          </mxGeometry>
        </mxCell>
        <mxCell id="u4UBgWqbXqTNb08_oveg-46" value="人" style="rounded=1;whiteSpace=wrap;html=1;" parent="WIyWlLk6GJQsqaUBKTNV-1" vertex="1">
          <mxGeometry x="530" y="620" width="40" height="40" as="geometry" />
        </mxCell>
        <mxCell id="u4UBgWqbXqTNb08_oveg-49" value="" style="edgeStyle=orthogonalEdgeStyle;rounded=0;orthogonalLoop=1;jettySize=auto;html=1;entryX=0;entryY=0.5;entryDx=0;entryDy=0;" parent="WIyWlLk6GJQsqaUBKTNV-1" source="u4UBgWqbXqTNb08_oveg-47" target="u4UBgWqbXqTNb08_oveg-54" edge="1">
          <mxGeometry relative="1" as="geometry">
            <mxPoint x="590" y="700" as="targetPoint" />
          </mxGeometry>
        </mxCell>
        <mxCell id="u4UBgWqbXqTNb08_oveg-56" value="数据标注" style="edgeLabel;html=1;align=center;verticalAlign=middle;resizable=0;points=[];" parent="u4UBgWqbXqTNb08_oveg-49" vertex="1" connectable="0">
          <mxGeometry x="-0.185" y="-1" relative="1" as="geometry">
            <mxPoint x="7" y="-1" as="offset" />
          </mxGeometry>
        </mxCell>
        <mxCell id="u4UBgWqbXqTNb08_oveg-47" value="数据" style="rounded=1;whiteSpace=wrap;html=1;" parent="WIyWlLk6GJQsqaUBKTNV-1" vertex="1">
          <mxGeometry x="530" y="680" width="40" height="40" as="geometry" />
        </mxCell>
        <mxCell id="u4UBgWqbXqTNb08_oveg-51" style="edgeStyle=orthogonalEdgeStyle;rounded=0;orthogonalLoop=1;jettySize=auto;html=1;exitX=1;exitY=0.5;exitDx=0;exitDy=0;entryX=0;entryY=0.5;entryDx=0;entryDy=0;" parent="WIyWlLk6GJQsqaUBKTNV-1" source="u4UBgWqbXqTNb08_oveg-52" target="u4UBgWqbXqTNb08_oveg-55" edge="1">
          <mxGeometry relative="1" as="geometry" />
        </mxCell>
        <mxCell id="u4UBgWqbXqTNb08_oveg-52" value="AI" style="rounded=1;whiteSpace=wrap;html=1;" parent="WIyWlLk6GJQsqaUBKTNV-1" vertex="1">
          <mxGeometry x="630" y="620" width="40" height="40" as="geometry" />
        </mxCell>
        <mxCell id="u4UBgWqbXqTNb08_oveg-53" value="" style="edgeStyle=orthogonalEdgeStyle;rounded=0;orthogonalLoop=1;jettySize=auto;html=1;" parent="WIyWlLk6GJQsqaUBKTNV-1" source="u4UBgWqbXqTNb08_oveg-54" target="u4UBgWqbXqTNb08_oveg-55" edge="1">
          <mxGeometry relative="1" as="geometry" />
        </mxCell>
        <mxCell id="u4UBgWqbXqTNb08_oveg-57" value="数据标注" style="edgeLabel;html=1;align=center;verticalAlign=middle;resizable=0;points=[];" parent="u4UBgWqbXqTNb08_oveg-53" vertex="1" connectable="0">
          <mxGeometry x="-0.11" y="-2" relative="1" as="geometry">
            <mxPoint x="4" y="-2" as="offset" />
          </mxGeometry>
        </mxCell>
        <mxCell id="u4UBgWqbXqTNb08_oveg-54" value="数据" style="rounded=1;whiteSpace=wrap;html=1;" parent="WIyWlLk6GJQsqaUBKTNV-1" vertex="1">
          <mxGeometry x="630" y="680" width="40" height="40" as="geometry" />
        </mxCell>
        <mxCell id="u4UBgWqbXqTNb08_oveg-61" value="" style="edgeStyle=orthogonalEdgeStyle;rounded=0;orthogonalLoop=1;jettySize=auto;html=1;" parent="WIyWlLk6GJQsqaUBKTNV-1" source="u4UBgWqbXqTNb08_oveg-55" target="u4UBgWqbXqTNb08_oveg-60" edge="1">
          <mxGeometry relative="1" as="geometry" />
        </mxCell>
        <mxCell id="u4UBgWqbXqTNb08_oveg-63" value="偏好微调" style="edgeLabel;html=1;align=center;verticalAlign=middle;resizable=0;points=[];" parent="u4UBgWqbXqTNb08_oveg-61" vertex="1" connectable="0">
          <mxGeometry x="-0.235" y="4" relative="1" as="geometry">
            <mxPoint x="9" y="4" as="offset" />
          </mxGeometry>
        </mxCell>
        <mxCell id="u4UBgWqbXqTNb08_oveg-55" value="标注好的数据" style="rounded=1;whiteSpace=wrap;html=1;" parent="WIyWlLk6GJQsqaUBKTNV-1" vertex="1">
          <mxGeometry x="730" y="680" width="80" height="40" as="geometry" />
        </mxCell>
        <mxCell id="u4UBgWqbXqTNb08_oveg-62" style="edgeStyle=orthogonalEdgeStyle;rounded=0;orthogonalLoop=1;jettySize=auto;html=1;exitX=1;exitY=0.5;exitDx=0;exitDy=0;entryX=0;entryY=0.5;entryDx=0;entryDy=0;" parent="WIyWlLk6GJQsqaUBKTNV-1" source="u4UBgWqbXqTNb08_oveg-59" target="u4UBgWqbXqTNb08_oveg-60" edge="1">
          <mxGeometry relative="1" as="geometry" />
        </mxCell>
        <mxCell id="u4UBgWqbXqTNb08_oveg-59" value="对比损失函数" style="rounded=1;whiteSpace=wrap;html=1;" parent="WIyWlLk6GJQsqaUBKTNV-1" vertex="1">
          <mxGeometry x="730" y="740" width="80" height="40" as="geometry" />
        </mxCell>
        <mxCell id="u4UBgWqbXqTNb08_oveg-60" value="人类偏好的模式" style="rounded=1;whiteSpace=wrap;html=1;" parent="WIyWlLk6GJQsqaUBKTNV-1" vertex="1">
          <mxGeometry x="890" y="680" width="80" height="40" as="geometry" />
        </mxCell>
        <mxCell id="u4UBgWqbXqTNb08_oveg-71" value="" style="edgeStyle=orthogonalEdgeStyle;rounded=0;orthogonalLoop=1;jettySize=auto;html=1;" parent="WIyWlLk6GJQsqaUBKTNV-1" source="u4UBgWqbXqTNb08_oveg-65" target="u4UBgWqbXqTNb08_oveg-70" edge="1">
          <mxGeometry relative="1" as="geometry" />
        </mxCell>
        <mxCell id="u4UBgWqbXqTNb08_oveg-72" value="生成" style="edgeLabel;html=1;align=center;verticalAlign=middle;resizable=0;points=[];" parent="u4UBgWqbXqTNb08_oveg-71" vertex="1" connectable="0">
          <mxGeometry x="-0.1867" y="-2" relative="1" as="geometry">
            <mxPoint x="6" y="-2" as="offset" />
          </mxGeometry>
        </mxCell>
        <mxCell id="u4UBgWqbXqTNb08_oveg-65" value="DeepSeek-V3" style="rounded=1;whiteSpace=wrap;html=1;" parent="WIyWlLk6GJQsqaUBKTNV-1" vertex="1">
          <mxGeometry x="1120" y="340" width="80" height="40" as="geometry" />
        </mxCell>
        <mxCell id="u4UBgWqbXqTNb08_oveg-78" value="" style="edgeStyle=orthogonalEdgeStyle;rounded=0;orthogonalLoop=1;jettySize=auto;html=1;" parent="WIyWlLk6GJQsqaUBKTNV-1" source="u4UBgWqbXqTNb08_oveg-66" target="u4UBgWqbXqTNb08_oveg-77" edge="1">
          <mxGeometry relative="1" as="geometry" />
        </mxCell>
        <mxCell id="u4UBgWqbXqTNb08_oveg-86" value="解释问题" style="edgeLabel;html=1;align=center;verticalAlign=middle;resizable=0;points=[];" parent="u4UBgWqbXqTNb08_oveg-78" vertex="1" connectable="0">
          <mxGeometry x="0.04" y="3" relative="1" as="geometry">
            <mxPoint x="-2" y="3" as="offset" />
          </mxGeometry>
        </mxCell>
        <mxCell id="u4UBgWqbXqTNb08_oveg-66" value="DeepSeek-R1" style="rounded=1;whiteSpace=wrap;html=1;" parent="WIyWlLk6GJQsqaUBKTNV-1" vertex="1">
          <mxGeometry x="1420" y="340" width="80" height="40" as="geometry" />
        </mxCell>
        <mxCell id="u4UBgWqbXqTNb08_oveg-73" style="edgeStyle=orthogonalEdgeStyle;rounded=0;orthogonalLoop=1;jettySize=auto;html=1;exitX=1;exitY=0.5;exitDx=0;exitDy=0;entryX=0;entryY=0.5;entryDx=0;entryDy=0;" parent="WIyWlLk6GJQsqaUBKTNV-1" source="u4UBgWqbXqTNb08_oveg-69" target="u4UBgWqbXqTNb08_oveg-70" edge="1">
          <mxGeometry relative="1" as="geometry" />
        </mxCell>
        <mxCell id="u4UBgWqbXqTNb08_oveg-69" value="接收到的指令" style="rounded=1;whiteSpace=wrap;html=1;" parent="WIyWlLk6GJQsqaUBKTNV-1" vertex="1">
          <mxGeometry x="1120" y="400" width="80" height="40" as="geometry" />
        </mxCell>
        <mxCell id="u4UBgWqbXqTNb08_oveg-70" value="相应的文本回复" style="rounded=1;whiteSpace=wrap;html=1;" parent="WIyWlLk6GJQsqaUBKTNV-1" vertex="1">
          <mxGeometry x="1240" y="340" width="100" height="40" as="geometry" />
        </mxCell>
        <mxCell id="u4UBgWqbXqTNb08_oveg-93" style="edgeStyle=orthogonalEdgeStyle;rounded=0;orthogonalLoop=1;jettySize=auto;html=1;exitX=0.5;exitY=1;exitDx=0;exitDy=0;entryX=0;entryY=0.5;entryDx=0;entryDy=0;" parent="WIyWlLk6GJQsqaUBKTNV-1" source="u4UBgWqbXqTNb08_oveg-119" target="u4UBgWqbXqTNb08_oveg-66" edge="1">
          <mxGeometry relative="1" as="geometry">
            <mxPoint x="1440" y="600" as="sourcePoint" />
          </mxGeometry>
        </mxCell>
        <mxCell id="u4UBgWqbXqTNb08_oveg-94" style="edgeStyle=orthogonalEdgeStyle;rounded=0;orthogonalLoop=1;jettySize=auto;html=1;exitX=0.5;exitY=1;exitDx=0;exitDy=0;entryX=0;entryY=0.5;entryDx=0;entryDy=0;" parent="WIyWlLk6GJQsqaUBKTNV-1" source="u4UBgWqbXqTNb08_oveg-119" target="u4UBgWqbXqTNb08_oveg-91" edge="1">
          <mxGeometry relative="1" as="geometry">
            <mxPoint x="1440" y="600" as="sourcePoint" />
          </mxGeometry>
        </mxCell>
        <mxCell id="u4UBgWqbXqTNb08_oveg-76" value="最终答案" style="rounded=1;whiteSpace=wrap;html=1;" parent="WIyWlLk6GJQsqaUBKTNV-1" vertex="1">
          <mxGeometry x="1740" y="340" width="60" height="40" as="geometry" />
        </mxCell>
        <mxCell id="u4UBgWqbXqTNb08_oveg-79" value="" style="edgeStyle=orthogonalEdgeStyle;rounded=0;orthogonalLoop=1;jettySize=auto;html=1;" parent="WIyWlLk6GJQsqaUBKTNV-1" source="u4UBgWqbXqTNb08_oveg-81" target="u4UBgWqbXqTNb08_oveg-76" edge="1">
          <mxGeometry relative="1" as="geometry" />
        </mxCell>
        <mxCell id="u4UBgWqbXqTNb08_oveg-77" value="中间Token" style="rounded=1;whiteSpace=wrap;html=1;" parent="WIyWlLk6GJQsqaUBKTNV-1" vertex="1">
          <mxGeometry x="1560" y="340" width="60" height="40" as="geometry" />
        </mxCell>
        <mxCell id="u4UBgWqbXqTNb08_oveg-82" value="" style="edgeStyle=orthogonalEdgeStyle;rounded=0;orthogonalLoop=1;jettySize=auto;html=1;" parent="WIyWlLk6GJQsqaUBKTNV-1" source="u4UBgWqbXqTNb08_oveg-77" target="u4UBgWqbXqTNb08_oveg-81" edge="1">
          <mxGeometry relative="1" as="geometry">
            <mxPoint x="1620" y="360" as="sourcePoint" />
            <mxPoint x="1780" y="360" as="targetPoint" />
          </mxGeometry>
        </mxCell>
        <mxCell id="u4UBgWqbXqTNb08_oveg-87" value="分解问题" style="edgeLabel;html=1;align=center;verticalAlign=middle;resizable=0;points=[];" parent="u4UBgWqbXqTNb08_oveg-82" vertex="1" connectable="0">
          <mxGeometry x="0.192" relative="1" as="geometry">
            <mxPoint x="-8" as="offset" />
          </mxGeometry>
        </mxCell>
        <mxCell id="u4UBgWqbXqTNb08_oveg-81" value="……" style="rounded=1;whiteSpace=wrap;html=1;" parent="WIyWlLk6GJQsqaUBKTNV-1" vertex="1">
          <mxGeometry x="1680" y="340" width="40" height="40" as="geometry" />
        </mxCell>
        <mxCell id="u4UBgWqbXqTNb08_oveg-89" style="edgeStyle=orthogonalEdgeStyle;rounded=0;orthogonalLoop=1;jettySize=auto;html=1;exitX=0;exitY=0.5;exitDx=0;exitDy=0;" parent="WIyWlLk6GJQsqaUBKTNV-1" source="u4UBgWqbXqTNb08_oveg-88" edge="1">
          <mxGeometry relative="1" as="geometry">
            <mxPoint x="1530" y="370" as="targetPoint" />
          </mxGeometry>
        </mxCell>
        <mxCell id="u4UBgWqbXqTNb08_oveg-132" style="edgeStyle=orthogonalEdgeStyle;rounded=0;orthogonalLoop=1;jettySize=auto;html=1;exitX=1;exitY=0.5;exitDx=0;exitDy=0;" parent="WIyWlLk6GJQsqaUBKTNV-1" source="u4UBgWqbXqTNb08_oveg-88" edge="1">
          <mxGeometry relative="1" as="geometry">
            <mxPoint x="1650" y="370" as="targetPoint" />
          </mxGeometry>
        </mxCell>
        <mxCell id="u4UBgWqbXqTNb08_oveg-88" value="思维链过程" style="text;html=1;align=left;verticalAlign=middle;whiteSpace=wrap;rounded=0;fillColor=#fff2cc;strokeColor=#d6b656;" parent="WIyWlLk6GJQsqaUBKTNV-1" vertex="1">
          <mxGeometry x="1550" y="400" width="80" height="40" as="geometry" />
        </mxCell>
        <mxCell id="u4UBgWqbXqTNb08_oveg-91" value="DeepSeek-Reasoning" style="rounded=1;whiteSpace=wrap;html=1;" parent="WIyWlLk6GJQsqaUBKTNV-1" vertex="1">
          <mxGeometry x="1420" y="460" width="80" height="40" as="geometry" />
        </mxCell>
        <mxCell id="u4UBgWqbXqTNb08_oveg-92" value="GPT o3-mini" style="rounded=1;whiteSpace=wrap;html=1;" parent="WIyWlLk6GJQsqaUBKTNV-1" vertex="1">
          <mxGeometry x="1420" y="520" width="80" height="40" as="geometry" />
        </mxCell>
        <mxCell id="3Ow6gu8wzPXKj3C6qqLN-42" style="edgeStyle=orthogonalEdgeStyle;rounded=0;orthogonalLoop=1;jettySize=auto;html=1;exitX=1;exitY=0.5;exitDx=0;exitDy=0;entryX=0;entryY=0.5;entryDx=0;entryDy=0;" parent="WIyWlLk6GJQsqaUBKTNV-1" source="u4UBgWqbXqTNb08_oveg-102" target="u4UBgWqbXqTNb08_oveg-106" edge="1">
          <mxGeometry relative="1" as="geometry" />
        </mxCell>
        <mxCell id="u4UBgWqbXqTNb08_oveg-102" value="精确性" style="rounded=1;whiteSpace=wrap;html=1;" parent="WIyWlLk6GJQsqaUBKTNV-1" vertex="1">
          <mxGeometry x="1150" y="1560" width="60" height="40" as="geometry" />
        </mxCell>
        <mxCell id="3Ow6gu8wzPXKj3C6qqLN-44" style="edgeStyle=orthogonalEdgeStyle;rounded=0;orthogonalLoop=1;jettySize=auto;html=1;exitX=1;exitY=0.5;exitDx=0;exitDy=0;entryX=0;entryY=0.5;entryDx=0;entryDy=0;" parent="WIyWlLk6GJQsqaUBKTNV-1" source="u4UBgWqbXqTNb08_oveg-103" target="u4UBgWqbXqTNb08_oveg-104" edge="1">
          <mxGeometry relative="1" as="geometry" />
        </mxCell>
        <mxCell id="u4UBgWqbXqTNb08_oveg-103" value="可解释性" style="rounded=1;whiteSpace=wrap;html=1;" parent="WIyWlLk6GJQsqaUBKTNV-1" vertex="1">
          <mxGeometry x="1290" y="1560" width="60" height="40" as="geometry" />
        </mxCell>
        <mxCell id="3Ow6gu8wzPXKj3C6qqLN-45" style="edgeStyle=orthogonalEdgeStyle;rounded=0;orthogonalLoop=1;jettySize=auto;html=1;exitX=1;exitY=0.5;exitDx=0;exitDy=0;entryX=0;entryY=0.5;entryDx=0;entryDy=0;" parent="WIyWlLk6GJQsqaUBKTNV-1" source="u4UBgWqbXqTNb08_oveg-104" target="u4UBgWqbXqTNb08_oveg-105" edge="1">
          <mxGeometry relative="1" as="geometry" />
        </mxCell>
        <mxCell id="u4UBgWqbXqTNb08_oveg-104" value="可扩展性" style="rounded=1;whiteSpace=wrap;html=1;" parent="WIyWlLk6GJQsqaUBKTNV-1" vertex="1">
          <mxGeometry x="1370" y="1560" width="60" height="40" as="geometry" />
        </mxCell>
        <mxCell id="u4UBgWqbXqTNb08_oveg-105" value="自适应能力" style="rounded=1;whiteSpace=wrap;html=1;" parent="WIyWlLk6GJQsqaUBKTNV-1" vertex="1">
          <mxGeometry x="1450" y="1560" width="80" height="40" as="geometry" />
        </mxCell>
        <mxCell id="3Ow6gu8wzPXKj3C6qqLN-43" style="edgeStyle=orthogonalEdgeStyle;rounded=0;orthogonalLoop=1;jettySize=auto;html=1;exitX=1;exitY=0.5;exitDx=0;exitDy=0;entryX=0;entryY=0.5;entryDx=0;entryDy=0;" parent="WIyWlLk6GJQsqaUBKTNV-1" source="u4UBgWqbXqTNb08_oveg-106" target="u4UBgWqbXqTNb08_oveg-103" edge="1">
          <mxGeometry relative="1" as="geometry" />
        </mxCell>
        <mxCell id="u4UBgWqbXqTNb08_oveg-106" value="性能" style="rounded=1;whiteSpace=wrap;html=1;" parent="WIyWlLk6GJQsqaUBKTNV-1" vertex="1">
          <mxGeometry x="1230" y="1560" width="40" height="40" as="geometry" />
        </mxCell>
        <mxCell id="3Ow6gu8wzPXKj3C6qqLN-41" style="edgeStyle=orthogonalEdgeStyle;rounded=0;orthogonalLoop=1;jettySize=auto;html=1;exitX=0.5;exitY=1;exitDx=0;exitDy=0;entryX=0;entryY=0.5;entryDx=0;entryDy=0;" parent="WIyWlLk6GJQsqaUBKTNV-1" source="u4UBgWqbXqTNb08_oveg-107" target="u4UBgWqbXqTNb08_oveg-102" edge="1">
          <mxGeometry relative="1" as="geometry" />
        </mxCell>
        <mxCell id="u4UBgWqbXqTNb08_oveg-107" value="模型指标" style="rounded=1;whiteSpace=wrap;html=1;" parent="WIyWlLk6GJQsqaUBKTNV-1" vertex="1">
          <mxGeometry x="1090" y="1500" width="60" height="40" as="geometry" />
        </mxCell>
        <mxCell id="u4UBgWqbXqTNb08_oveg-139" style="edgeStyle=orthogonalEdgeStyle;rounded=0;orthogonalLoop=1;jettySize=auto;html=1;exitX=0.5;exitY=0;exitDx=0;exitDy=0;entryX=0.5;entryY=1;entryDx=0;entryDy=0;" parent="WIyWlLk6GJQsqaUBKTNV-1" source="u4UBgWqbXqTNb08_oveg-113" target="9GIwrj6_YMxmyssUa3dc-2" edge="1">
          <mxGeometry relative="1" as="geometry" />
        </mxCell>
        <mxCell id="u4UBgWqbXqTNb08_oveg-113" value="机器学习" style="rounded=1;whiteSpace=wrap;html=1;fontSize=12;glass=0;strokeWidth=1;shadow=0;" parent="WIyWlLk6GJQsqaUBKTNV-1" vertex="1">
          <mxGeometry x="420" y="1500" width="80" height="40" as="geometry" />
        </mxCell>
        <mxCell id="u4UBgWqbXqTNb08_oveg-123" style="edgeStyle=orthogonalEdgeStyle;rounded=0;orthogonalLoop=1;jettySize=auto;html=1;exitX=1;exitY=0.5;exitDx=0;exitDy=0;" parent="WIyWlLk6GJQsqaUBKTNV-1" source="u4UBgWqbXqTNb08_oveg-119" target="9GIwrj6_YMxmyssUa3dc-0" edge="1">
          <mxGeometry relative="1" as="geometry" />
        </mxCell>
        <mxCell id="u4UBgWqbXqTNb08_oveg-126" style="edgeStyle=orthogonalEdgeStyle;rounded=0;orthogonalLoop=1;jettySize=auto;html=1;exitX=0.5;exitY=1;exitDx=0;exitDy=0;entryX=0;entryY=0.5;entryDx=0;entryDy=0;" parent="WIyWlLk6GJQsqaUBKTNV-1" source="u4UBgWqbXqTNb08_oveg-119" target="u4UBgWqbXqTNb08_oveg-92" edge="1">
          <mxGeometry relative="1" as="geometry" />
        </mxCell>
        <mxCell id="u4UBgWqbXqTNb08_oveg-119" value="&lt;span style=&quot;text-align: left;&quot;&gt;推理模型&lt;/span&gt;" style="rounded=1;whiteSpace=wrap;html=1;fontSize=12;glass=0;strokeWidth=1;shadow=0;fillColor=#d5e8d4;strokeColor=#82b366;" parent="WIyWlLk6GJQsqaUBKTNV-1" vertex="1">
          <mxGeometry x="1360" y="280" width="80" height="40" as="geometry" />
        </mxCell>
        <mxCell id="u4UBgWqbXqTNb08_oveg-122" style="edgeStyle=orthogonalEdgeStyle;rounded=0;orthogonalLoop=1;jettySize=auto;html=1;exitX=1;exitY=0.5;exitDx=0;exitDy=0;entryX=0;entryY=0.5;entryDx=0;entryDy=0;" parent="WIyWlLk6GJQsqaUBKTNV-1" source="u4UBgWqbXqTNb08_oveg-120" target="u4UBgWqbXqTNb08_oveg-119" edge="1">
          <mxGeometry relative="1" as="geometry" />
        </mxCell>
        <mxCell id="xBU8r5VywiUFEwU285NF-4" style="edgeStyle=orthogonalEdgeStyle;rounded=0;orthogonalLoop=1;jettySize=auto;html=1;exitX=1;exitY=0.75;exitDx=0;exitDy=0;entryX=0;entryY=0.5;entryDx=0;entryDy=0;" parent="WIyWlLk6GJQsqaUBKTNV-1" source="u4UBgWqbXqTNb08_oveg-120" target="u4UBgWqbXqTNb08_oveg-65" edge="1">
          <mxGeometry relative="1" as="geometry" />
        </mxCell>
        <mxCell id="u4UBgWqbXqTNb08_oveg-120" value="&lt;span style=&quot;text-align: left;&quot;&gt;指令模型&lt;/span&gt;" style="rounded=1;whiteSpace=wrap;html=1;fontSize=12;glass=0;strokeWidth=1;shadow=0;fillColor=#d5e8d4;strokeColor=#82b366;" parent="WIyWlLk6GJQsqaUBKTNV-1" vertex="1">
          <mxGeometry x="1000" y="280" width="80" height="40" as="geometry" />
        </mxCell>
        <mxCell id="u4UBgWqbXqTNb08_oveg-128" value="" style="edgeStyle=orthogonalEdgeStyle;rounded=0;orthogonalLoop=1;jettySize=auto;html=1;" parent="WIyWlLk6GJQsqaUBKTNV-1" source="u4UBgWqbXqTNb08_oveg-124" target="u4UBgWqbXqTNb08_oveg-125" edge="1">
          <mxGeometry relative="1" as="geometry" />
        </mxCell>
        <mxCell id="u4UBgWqbXqTNb08_oveg-124" value="创新者" style="rounded=1;whiteSpace=wrap;html=1;fontSize=12;glass=0;strokeWidth=1;shadow=0;fillColor=#d5e8d4;strokeColor=#82b366;" parent="WIyWlLk6GJQsqaUBKTNV-1" vertex="1">
          <mxGeometry x="1920" y="280" width="80" height="40" as="geometry" />
        </mxCell>
        <mxCell id="u4UBgWqbXqTNb08_oveg-125" value="组织者" style="rounded=1;whiteSpace=wrap;html=1;fontSize=12;glass=0;strokeWidth=1;shadow=0;fillColor=#d5e8d4;strokeColor=#82b366;" parent="WIyWlLk6GJQsqaUBKTNV-1" vertex="1">
          <mxGeometry x="2020" y="280" width="80" height="40" as="geometry" />
        </mxCell>
        <mxCell id="3Ow6gu8wzPXKj3C6qqLN-9" style="edgeStyle=orthogonalEdgeStyle;rounded=0;orthogonalLoop=1;jettySize=auto;html=1;exitX=1;exitY=0.5;exitDx=0;exitDy=0;entryX=0;entryY=0.5;entryDx=0;entryDy=0;" parent="WIyWlLk6GJQsqaUBKTNV-1" source="3Ow6gu8wzPXKj3C6qqLN-0" target="3Ow6gu8wzPXKj3C6qqLN-8" edge="1">
          <mxGeometry relative="1" as="geometry" />
        </mxCell>
        <mxCell id="3Ow6gu8wzPXKj3C6qqLN-21" style="edgeStyle=orthogonalEdgeStyle;rounded=0;orthogonalLoop=1;jettySize=auto;html=1;exitX=0.5;exitY=0;exitDx=0;exitDy=0;" parent="WIyWlLk6GJQsqaUBKTNV-1" source="3Ow6gu8wzPXKj3C6qqLN-0" target="3Ow6gu8wzPXKj3C6qqLN-14" edge="1">
          <mxGeometry relative="1" as="geometry" />
        </mxCell>
        <mxCell id="3Ow6gu8wzPXKj3C6qqLN-46" style="edgeStyle=orthogonalEdgeStyle;rounded=0;orthogonalLoop=1;jettySize=auto;html=1;exitX=0.75;exitY=1;exitDx=0;exitDy=0;entryX=0;entryY=0.5;entryDx=0;entryDy=0;" parent="WIyWlLk6GJQsqaUBKTNV-1" source="3Ow6gu8wzPXKj3C6qqLN-0" target="3Ow6gu8wzPXKj3C6qqLN-1" edge="1">
          <mxGeometry relative="1" as="geometry">
            <Array as="points">
              <mxPoint x="1055" y="1840" />
            </Array>
          </mxGeometry>
        </mxCell>
        <mxCell id="3Ow6gu8wzPXKj3C6qqLN-0" value="语言符号" style="rounded=1;whiteSpace=wrap;html=1;" parent="WIyWlLk6GJQsqaUBKTNV-1" vertex="1">
          <mxGeometry x="1010" y="1640" width="60" height="40" as="geometry" />
        </mxCell>
        <mxCell id="3Ow6gu8wzPXKj3C6qqLN-47" value="" style="edgeStyle=orthogonalEdgeStyle;rounded=0;orthogonalLoop=1;jettySize=auto;html=1;" parent="WIyWlLk6GJQsqaUBKTNV-1" source="3Ow6gu8wzPXKj3C6qqLN-1" target="3Ow6gu8wzPXKj3C6qqLN-2" edge="1">
          <mxGeometry relative="1" as="geometry" />
        </mxCell>
        <mxCell id="3Ow6gu8wzPXKj3C6qqLN-1" value="音韵" style="rounded=1;whiteSpace=wrap;html=1;" parent="WIyWlLk6GJQsqaUBKTNV-1" vertex="1">
          <mxGeometry x="1070" y="1820" width="40" height="40" as="geometry" />
        </mxCell>
        <mxCell id="3Ow6gu8wzPXKj3C6qqLN-48" value="" style="edgeStyle=orthogonalEdgeStyle;rounded=0;orthogonalLoop=1;jettySize=auto;html=1;" parent="WIyWlLk6GJQsqaUBKTNV-1" source="3Ow6gu8wzPXKj3C6qqLN-2" target="3Ow6gu8wzPXKj3C6qqLN-3" edge="1">
          <mxGeometry relative="1" as="geometry" />
        </mxCell>
        <mxCell id="3Ow6gu8wzPXKj3C6qqLN-2" value="词法" style="rounded=1;whiteSpace=wrap;html=1;" parent="WIyWlLk6GJQsqaUBKTNV-1" vertex="1">
          <mxGeometry x="1130" y="1820" width="40" height="40" as="geometry" />
        </mxCell>
        <mxCell id="3Ow6gu8wzPXKj3C6qqLN-3" value="句法" style="rounded=1;whiteSpace=wrap;html=1;" parent="WIyWlLk6GJQsqaUBKTNV-1" vertex="1">
          <mxGeometry x="1190" y="1820" width="40" height="40" as="geometry" />
        </mxCell>
        <mxCell id="3Ow6gu8wzPXKj3C6qqLN-8" value="语义" style="rounded=1;whiteSpace=wrap;html=1;" parent="WIyWlLk6GJQsqaUBKTNV-1" vertex="1">
          <mxGeometry x="1200" y="1640" width="40" height="40" as="geometry" />
        </mxCell>
        <mxCell id="3Ow6gu8wzPXKj3C6qqLN-11" style="edgeStyle=orthogonalEdgeStyle;rounded=0;orthogonalLoop=1;jettySize=auto;html=1;exitX=0.25;exitY=0;exitDx=0;exitDy=0;entryX=1;entryY=1;entryDx=0;entryDy=0;" parent="WIyWlLk6GJQsqaUBKTNV-1" source="3Ow6gu8wzPXKj3C6qqLN-10" target="3Ow6gu8wzPXKj3C6qqLN-0" edge="1">
          <mxGeometry relative="1" as="geometry">
            <Array as="points">
              <mxPoint x="1100" y="1700" />
              <mxPoint x="1070" y="1700" />
            </Array>
          </mxGeometry>
        </mxCell>
        <mxCell id="3Ow6gu8wzPXKj3C6qqLN-28" style="edgeStyle=orthogonalEdgeStyle;rounded=0;orthogonalLoop=1;jettySize=auto;html=1;exitX=0.75;exitY=0;exitDx=0;exitDy=0;entryX=0;entryY=1;entryDx=0;entryDy=0;" parent="WIyWlLk6GJQsqaUBKTNV-1" source="3Ow6gu8wzPXKj3C6qqLN-10" target="3Ow6gu8wzPXKj3C6qqLN-8" edge="1">
          <mxGeometry relative="1" as="geometry" />
        </mxCell>
        <mxCell id="3Ow6gu8wzPXKj3C6qqLN-10" value="多对多关系：不同的语言符号可能对应同一个语义，一套语言符号在不同场景下可能对应多个语义。&lt;div&gt;语言是概率的。&lt;/div&gt;" style="text;html=1;align=left;verticalAlign=middle;whiteSpace=wrap;rounded=0;fillColor=#fff2cc;strokeColor=#d6b656;" parent="WIyWlLk6GJQsqaUBKTNV-1" vertex="1">
          <mxGeometry x="1060" y="1720" width="160" height="80" as="geometry" />
        </mxCell>
        <mxCell id="3Ow6gu8wzPXKj3C6qqLN-16" style="edgeStyle=orthogonalEdgeStyle;rounded=0;orthogonalLoop=1;jettySize=auto;html=1;exitX=1;exitY=0.5;exitDx=0;exitDy=0;entryX=0;entryY=0.5;entryDx=0;entryDy=0;" parent="WIyWlLk6GJQsqaUBKTNV-1" source="3Ow6gu8wzPXKj3C6qqLN-14" target="3Ow6gu8wzPXKj3C6qqLN-15" edge="1">
          <mxGeometry relative="1" as="geometry" />
        </mxCell>
        <mxCell id="3Ow6gu8wzPXKj3C6qqLN-22" style="edgeStyle=orthogonalEdgeStyle;rounded=0;orthogonalLoop=1;jettySize=auto;html=1;exitX=0.75;exitY=1;exitDx=0;exitDy=0;entryX=0;entryY=0.5;entryDx=0;entryDy=0;" parent="WIyWlLk6GJQsqaUBKTNV-1" source="3Ow6gu8wzPXKj3C6qqLN-14" target="u4UBgWqbXqTNb08_oveg-107" edge="1">
          <mxGeometry relative="1" as="geometry" />
        </mxCell>
        <mxCell id="3Ow6gu8wzPXKj3C6qqLN-30" style="edgeStyle=orthogonalEdgeStyle;rounded=0;orthogonalLoop=1;jettySize=auto;html=1;exitX=0.75;exitY=1;exitDx=0;exitDy=0;entryX=0;entryY=0.5;entryDx=0;entryDy=0;" parent="WIyWlLk6GJQsqaUBKTNV-1" source="3Ow6gu8wzPXKj3C6qqLN-14" target="3Ow6gu8wzPXKj3C6qqLN-29" edge="1">
          <mxGeometry relative="1" as="geometry" />
        </mxCell>
        <mxCell id="3Ow6gu8wzPXKj3C6qqLN-14" value="语言模型" style="rounded=1;whiteSpace=wrap;html=1;" parent="WIyWlLk6GJQsqaUBKTNV-1" vertex="1">
          <mxGeometry x="1010" y="1080" width="60" height="40" as="geometry" />
        </mxCell>
        <mxCell id="3Ow6gu8wzPXKj3C6qqLN-15" value="计算机" style="rounded=1;whiteSpace=wrap;html=1;" parent="WIyWlLk6GJQsqaUBKTNV-1" vertex="1">
          <mxGeometry x="1090" y="1080" width="60" height="40" as="geometry" />
        </mxCell>
        <mxCell id="3Ow6gu8wzPXKj3C6qqLN-19" style="edgeStyle=orthogonalEdgeStyle;rounded=0;orthogonalLoop=1;jettySize=auto;html=1;exitX=0;exitY=0.5;exitDx=0;exitDy=0;entryX=1;entryY=0.5;entryDx=0;entryDy=0;" parent="WIyWlLk6GJQsqaUBKTNV-1" source="3Ow6gu8wzPXKj3C6qqLN-17" target="3Ow6gu8wzPXKj3C6qqLN-15" edge="1">
          <mxGeometry relative="1" as="geometry" />
        </mxCell>
        <mxCell id="3Ow6gu8wzPXKj3C6qqLN-17" value="语言学角度，掌握语法，理解语义" style="text;html=1;align=left;verticalAlign=middle;whiteSpace=wrap;rounded=0;fillColor=#fff2cc;strokeColor=#d6b656;" parent="WIyWlLk6GJQsqaUBKTNV-1" vertex="1">
          <mxGeometry x="1190" y="1050" width="190" height="40" as="geometry" />
        </mxCell>
        <mxCell id="3Ow6gu8wzPXKj3C6qqLN-20" style="edgeStyle=orthogonalEdgeStyle;rounded=0;orthogonalLoop=1;jettySize=auto;html=1;exitX=0;exitY=0.5;exitDx=0;exitDy=0;entryX=1;entryY=0.5;entryDx=0;entryDy=0;" parent="WIyWlLk6GJQsqaUBKTNV-1" source="3Ow6gu8wzPXKj3C6qqLN-18" target="3Ow6gu8wzPXKj3C6qqLN-15" edge="1">
          <mxGeometry relative="1" as="geometry" />
        </mxCell>
        <mxCell id="3Ow6gu8wzPXKj3C6qqLN-18" value="认知科学角度，描摹认知，演化智能" style="text;html=1;align=left;verticalAlign=middle;whiteSpace=wrap;rounded=0;fillColor=#fff2cc;strokeColor=#d6b656;" parent="WIyWlLk6GJQsqaUBKTNV-1" vertex="1">
          <mxGeometry x="1190" y="1110" width="210" height="40" as="geometry" />
        </mxCell>
        <mxCell id="3Ow6gu8wzPXKj3C6qqLN-33" style="edgeStyle=orthogonalEdgeStyle;rounded=0;orthogonalLoop=1;jettySize=auto;html=1;exitX=1;exitY=0.5;exitDx=0;exitDy=0;entryX=0;entryY=0.5;entryDx=0;entryDy=0;" parent="WIyWlLk6GJQsqaUBKTNV-1" source="3Ow6gu8wzPXKj3C6qqLN-29" target="3Ow6gu8wzPXKj3C6qqLN-31" edge="1">
          <mxGeometry relative="1" as="geometry" />
        </mxCell>
        <mxCell id="3Ow6gu8wzPXKj3C6qqLN-29" value="规则模型" style="rounded=1;whiteSpace=wrap;html=1;" parent="WIyWlLk6GJQsqaUBKTNV-1" vertex="1">
          <mxGeometry x="1090" y="1180" width="60" height="40" as="geometry" />
        </mxCell>
        <mxCell id="3Ow6gu8wzPXKj3C6qqLN-34" style="edgeStyle=orthogonalEdgeStyle;rounded=0;orthogonalLoop=1;jettySize=auto;html=1;exitX=1;exitY=0.5;exitDx=0;exitDy=0;entryX=0;entryY=0.5;entryDx=0;entryDy=0;" parent="WIyWlLk6GJQsqaUBKTNV-1" source="3Ow6gu8wzPXKj3C6qqLN-31" target="3Ow6gu8wzPXKj3C6qqLN-32" edge="1">
          <mxGeometry relative="1" as="geometry" />
        </mxCell>
        <mxCell id="3Ow6gu8wzPXKj3C6qqLN-36" style="edgeStyle=orthogonalEdgeStyle;rounded=0;orthogonalLoop=1;jettySize=auto;html=1;exitX=0.5;exitY=1;exitDx=0;exitDy=0;entryX=0;entryY=0.5;entryDx=0;entryDy=0;" parent="WIyWlLk6GJQsqaUBKTNV-1" source="3Ow6gu8wzPXKj3C6qqLN-31" target="3Ow6gu8wzPXKj3C6qqLN-35" edge="1">
          <mxGeometry relative="1" as="geometry" />
        </mxCell>
        <mxCell id="3Ow6gu8wzPXKj3C6qqLN-31" value="统计模型" style="rounded=1;whiteSpace=wrap;html=1;" parent="WIyWlLk6GJQsqaUBKTNV-1" vertex="1">
          <mxGeometry x="1170" y="1180" width="60" height="40" as="geometry" />
        </mxCell>
        <mxCell id="3Ow6gu8wzPXKj3C6qqLN-38" style="edgeStyle=orthogonalEdgeStyle;rounded=0;orthogonalLoop=1;jettySize=auto;html=1;exitX=0.5;exitY=1;exitDx=0;exitDy=0;entryX=0;entryY=0.5;entryDx=0;entryDy=0;" parent="WIyWlLk6GJQsqaUBKTNV-1" source="3Ow6gu8wzPXKj3C6qqLN-32" target="3Ow6gu8wzPXKj3C6qqLN-37" edge="1">
          <mxGeometry relative="1" as="geometry" />
        </mxCell>
        <mxCell id="3Ow6gu8wzPXKj3C6qqLN-53" style="edgeStyle=orthogonalEdgeStyle;rounded=0;orthogonalLoop=1;jettySize=auto;html=1;exitX=0.5;exitY=1;exitDx=0;exitDy=0;entryX=0;entryY=0.5;entryDx=0;entryDy=0;" parent="WIyWlLk6GJQsqaUBKTNV-1" source="3Ow6gu8wzPXKj3C6qqLN-32" target="3Ow6gu8wzPXKj3C6qqLN-52" edge="1">
          <mxGeometry relative="1" as="geometry" />
        </mxCell>
        <mxCell id="3Ow6gu8wzPXKj3C6qqLN-32" value="神经网络模型" style="rounded=1;whiteSpace=wrap;html=1;" parent="WIyWlLk6GJQsqaUBKTNV-1" vertex="1">
          <mxGeometry x="1320" y="1180" width="80" height="40" as="geometry" />
        </mxCell>
        <mxCell id="3Ow6gu8wzPXKj3C6qqLN-35" value="n-grams模型" style="rounded=1;whiteSpace=wrap;html=1;" parent="WIyWlLk6GJQsqaUBKTNV-1" vertex="1">
          <mxGeometry x="1230" y="1240" width="70" height="40" as="geometry" />
        </mxCell>
        <mxCell id="3Ow6gu8wzPXKj3C6qqLN-50" style="edgeStyle=orthogonalEdgeStyle;rounded=0;orthogonalLoop=1;jettySize=auto;html=1;exitX=1;exitY=0.5;exitDx=0;exitDy=0;" parent="WIyWlLk6GJQsqaUBKTNV-1" source="3Ow6gu8wzPXKj3C6qqLN-37" target="3Ow6gu8wzPXKj3C6qqLN-39" edge="1">
          <mxGeometry relative="1" as="geometry" />
        </mxCell>
        <mxCell id="3Ow6gu8wzPXKj3C6qqLN-37" value="循环神经网络（RNN）模型" style="rounded=1;whiteSpace=wrap;html=1;" parent="WIyWlLk6GJQsqaUBKTNV-1" vertex="1">
          <mxGeometry x="1400" y="1440" width="80" height="40" as="geometry" />
        </mxCell>
        <mxCell id="3Ow6gu8wzPXKj3C6qqLN-39" value="Transformer模型" style="rounded=1;whiteSpace=wrap;html=1;" parent="WIyWlLk6GJQsqaUBKTNV-1" vertex="1">
          <mxGeometry x="1500" y="1440" width="100" height="40" as="geometry" />
        </mxCell>
        <mxCell id="3Ow6gu8wzPXKj3C6qqLN-51" style="edgeStyle=orthogonalEdgeStyle;rounded=0;orthogonalLoop=1;jettySize=auto;html=1;exitX=0.5;exitY=0;exitDx=0;exitDy=0;entryX=0.5;entryY=1;entryDx=0;entryDy=0;" parent="WIyWlLk6GJQsqaUBKTNV-1" source="3Ow6gu8wzPXKj3C6qqLN-49" target="3Ow6gu8wzPXKj3C6qqLN-35" edge="1">
          <mxGeometry relative="1" as="geometry" />
        </mxCell>
        <mxCell id="3Ow6gu8wzPXKj3C6qqLN-49" value="统计语言符号在语料库中出现的频率来预测语言符号的概率" style="text;html=1;align=left;verticalAlign=middle;whiteSpace=wrap;rounded=0;fillColor=#fff2cc;strokeColor=#d6b656;" parent="WIyWlLk6GJQsqaUBKTNV-1" vertex="1">
          <mxGeometry x="1230" y="1320" width="90" height="60" as="geometry" />
        </mxCell>
        <mxCell id="3Ow6gu8wzPXKj3C6qqLN-56" style="edgeStyle=orthogonalEdgeStyle;rounded=0;orthogonalLoop=1;jettySize=auto;html=1;exitX=0.5;exitY=1;exitDx=0;exitDy=0;entryX=0;entryY=0.5;entryDx=0;entryDy=0;" parent="WIyWlLk6GJQsqaUBKTNV-1" source="3Ow6gu8wzPXKj3C6qqLN-52" target="3Ow6gu8wzPXKj3C6qqLN-54" edge="1">
          <mxGeometry relative="1" as="geometry" />
        </mxCell>
        <mxCell id="3Ow6gu8wzPXKj3C6qqLN-52" value="正向传播范式" style="rounded=1;whiteSpace=wrap;html=1;" parent="WIyWlLk6GJQsqaUBKTNV-1" vertex="1">
          <mxGeometry x="1400" y="1240" width="80" height="40" as="geometry" />
        </mxCell>
        <mxCell id="3Ow6gu8wzPXKj3C6qqLN-57" style="edgeStyle=orthogonalEdgeStyle;rounded=0;orthogonalLoop=1;jettySize=auto;html=1;exitX=1;exitY=0.5;exitDx=0;exitDy=0;entryX=0;entryY=0.5;entryDx=0;entryDy=0;" parent="WIyWlLk6GJQsqaUBKTNV-1" source="3Ow6gu8wzPXKj3C6qqLN-54" target="3Ow6gu8wzPXKj3C6qqLN-55" edge="1">
          <mxGeometry relative="1" as="geometry" />
        </mxCell>
        <mxCell id="3Ow6gu8wzPXKj3C6qqLN-54" value="前馈传播范式" style="rounded=1;whiteSpace=wrap;html=1;" parent="WIyWlLk6GJQsqaUBKTNV-1" vertex="1">
          <mxGeometry x="1480" y="1300" width="80" height="40" as="geometry" />
        </mxCell>
        <mxCell id="3Ow6gu8wzPXKj3C6qqLN-55" value="循环传播范式" style="rounded=1;whiteSpace=wrap;html=1;" parent="WIyWlLk6GJQsqaUBKTNV-1" vertex="1">
          <mxGeometry x="1580" y="1300" width="80" height="40" as="geometry" />
        </mxCell>
        <mxCell id="3Ow6gu8wzPXKj3C6qqLN-59" style="edgeStyle=orthogonalEdgeStyle;rounded=0;orthogonalLoop=1;jettySize=auto;html=1;exitX=0.5;exitY=0;exitDx=0;exitDy=0;entryX=0.5;entryY=1;entryDx=0;entryDy=0;" parent="WIyWlLk6GJQsqaUBKTNV-1" source="3Ow6gu8wzPXKj3C6qqLN-58" target="3Ow6gu8wzPXKj3C6qqLN-54" edge="1">
          <mxGeometry relative="1" as="geometry" />
        </mxCell>
        <mxCell id="3Ow6gu8wzPXKj3C6qqLN-58" value="计算逐层向前，“不走回头路”" style="text;html=1;align=left;verticalAlign=middle;whiteSpace=wrap;rounded=0;fillColor=#fff2cc;strokeColor=#d6b656;" parent="WIyWlLk6GJQsqaUBKTNV-1" vertex="1">
          <mxGeometry x="1470" y="1380" width="100" height="40" as="geometry" />
        </mxCell>
        <mxCell id="3Ow6gu8wzPXKj3C6qqLN-61" style="edgeStyle=orthogonalEdgeStyle;rounded=0;orthogonalLoop=1;jettySize=auto;html=1;exitX=0.25;exitY=0;exitDx=0;exitDy=0;entryX=0.5;entryY=1;entryDx=0;entryDy=0;" parent="WIyWlLk6GJQsqaUBKTNV-1" source="3Ow6gu8wzPXKj3C6qqLN-60" target="3Ow6gu8wzPXKj3C6qqLN-55" edge="1">
          <mxGeometry relative="1" as="geometry" />
        </mxCell>
        <mxCell id="3Ow6gu8wzPXKj3C6qqLN-60" value="某些层的计算结果会通过环路被反向引回前面的层中，形式“螺旋式前进”" style="text;html=1;align=left;verticalAlign=middle;whiteSpace=wrap;rounded=0;fillColor=#fff2cc;strokeColor=#d6b656;" parent="WIyWlLk6GJQsqaUBKTNV-1" vertex="1">
          <mxGeometry x="1590" y="1380" width="210" height="40" as="geometry" />
        </mxCell>
        <mxCell id="AbXjkJ7tqVWqf835GHby-7" style="edgeStyle=orthogonalEdgeStyle;rounded=0;orthogonalLoop=1;jettySize=auto;html=1;exitX=1;exitY=0.5;exitDx=0;exitDy=0;entryX=0;entryY=0.5;entryDx=0;entryDy=0;" edge="1" parent="WIyWlLk6GJQsqaUBKTNV-1" source="AbXjkJ7tqVWqf835GHby-0" target="AbXjkJ7tqVWqf835GHby-4">
          <mxGeometry relative="1" as="geometry" />
        </mxCell>
        <mxCell id="AbXjkJ7tqVWqf835GHby-9" style="edgeStyle=orthogonalEdgeStyle;rounded=0;orthogonalLoop=1;jettySize=auto;html=1;exitX=0.5;exitY=1;exitDx=0;exitDy=0;entryX=0;entryY=0.5;entryDx=0;entryDy=0;" edge="1" parent="WIyWlLk6GJQsqaUBKTNV-1" source="AbXjkJ7tqVWqf835GHby-0" target="AbXjkJ7tqVWqf835GHby-6">
          <mxGeometry relative="1" as="geometry" />
        </mxCell>
        <mxCell id="AbXjkJ7tqVWqf835GHby-0" value="编码器" style="rounded=1;whiteSpace=wrap;html=1;fontSize=12;glass=0;strokeWidth=1;shadow=0;" vertex="1" parent="WIyWlLk6GJQsqaUBKTNV-1">
          <mxGeometry x="500" y="1100" width="40" height="40" as="geometry" />
        </mxCell>
        <mxCell id="AbXjkJ7tqVWqf835GHby-8" style="edgeStyle=orthogonalEdgeStyle;rounded=0;orthogonalLoop=1;jettySize=auto;html=1;exitX=1;exitY=0.5;exitDx=0;exitDy=0;entryX=0;entryY=0.5;entryDx=0;entryDy=0;" edge="1" parent="WIyWlLk6GJQsqaUBKTNV-1" source="AbXjkJ7tqVWqf835GHby-2" target="AbXjkJ7tqVWqf835GHby-5">
          <mxGeometry relative="1" as="geometry" />
        </mxCell>
        <mxCell id="AbXjkJ7tqVWqf835GHby-10" style="edgeStyle=orthogonalEdgeStyle;rounded=0;orthogonalLoop=1;jettySize=auto;html=1;exitX=0.5;exitY=0;exitDx=0;exitDy=0;entryX=0;entryY=0.5;entryDx=0;entryDy=0;" edge="1" parent="WIyWlLk6GJQsqaUBKTNV-1" source="AbXjkJ7tqVWqf835GHby-2" target="AbXjkJ7tqVWqf835GHby-6">
          <mxGeometry relative="1" as="geometry" />
        </mxCell>
        <mxCell id="AbXjkJ7tqVWqf835GHby-2" value="解码器" style="rounded=1;whiteSpace=wrap;html=1;fontSize=12;glass=0;strokeWidth=1;shadow=0;" vertex="1" parent="WIyWlLk6GJQsqaUBKTNV-1">
          <mxGeometry x="500" y="1220" width="40" height="40" as="geometry" />
        </mxCell>
        <mxCell id="AbXjkJ7tqVWqf835GHby-13" style="edgeStyle=orthogonalEdgeStyle;rounded=0;orthogonalLoop=1;jettySize=auto;html=1;exitX=1;exitY=0.5;exitDx=0;exitDy=0;entryX=0;entryY=0.5;entryDx=0;entryDy=0;" edge="1" parent="WIyWlLk6GJQsqaUBKTNV-1" source="AbXjkJ7tqVWqf835GHby-4" target="AbXjkJ7tqVWqf835GHby-11">
          <mxGeometry relative="1" as="geometry" />
        </mxCell>
        <mxCell id="AbXjkJ7tqVWqf835GHby-4" value="Encoder-Only架构" style="rounded=1;whiteSpace=wrap;html=1;fontSize=12;glass=0;strokeWidth=1;shadow=0;" vertex="1" parent="WIyWlLk6GJQsqaUBKTNV-1">
          <mxGeometry x="560" y="1100" width="120" height="40" as="geometry" />
        </mxCell>
        <mxCell id="AbXjkJ7tqVWqf835GHby-18" style="edgeStyle=orthogonalEdgeStyle;rounded=0;orthogonalLoop=1;jettySize=auto;html=1;exitX=1;exitY=0.5;exitDx=0;exitDy=0;entryX=0;entryY=0.5;entryDx=0;entryDy=0;" edge="1" parent="WIyWlLk6GJQsqaUBKTNV-1" source="AbXjkJ7tqVWqf835GHby-5" target="AbXjkJ7tqVWqf835GHby-16">
          <mxGeometry relative="1" as="geometry" />
        </mxCell>
        <mxCell id="AbXjkJ7tqVWqf835GHby-5" value="Decoder-Only架构" style="rounded=1;whiteSpace=wrap;html=1;fontSize=12;glass=0;strokeWidth=1;shadow=0;" vertex="1" parent="WIyWlLk6GJQsqaUBKTNV-1">
          <mxGeometry x="560" y="1220" width="120" height="40" as="geometry" />
        </mxCell>
        <mxCell id="AbXjkJ7tqVWqf835GHby-6" value="Encoder-Decoder架构" style="rounded=1;whiteSpace=wrap;html=1;fontSize=12;glass=0;strokeWidth=1;shadow=0;" vertex="1" parent="WIyWlLk6GJQsqaUBKTNV-1">
          <mxGeometry x="560" y="1160" width="140" height="40" as="geometry" />
        </mxCell>
        <mxCell id="AbXjkJ7tqVWqf835GHby-14" style="edgeStyle=orthogonalEdgeStyle;rounded=0;orthogonalLoop=1;jettySize=auto;html=1;exitX=1;exitY=0.5;exitDx=0;exitDy=0;entryX=0;entryY=0.5;entryDx=0;entryDy=0;" edge="1" parent="WIyWlLk6GJQsqaUBKTNV-1" source="AbXjkJ7tqVWqf835GHby-11" target="AbXjkJ7tqVWqf835GHby-12">
          <mxGeometry relative="1" as="geometry" />
        </mxCell>
        <mxCell id="AbXjkJ7tqVWqf835GHby-11" value="输入编码" style="rounded=1;whiteSpace=wrap;html=1;fontSize=12;glass=0;strokeWidth=1;shadow=0;" vertex="1" parent="WIyWlLk6GJQsqaUBKTNV-1">
          <mxGeometry x="700" y="1100" width="60" height="40" as="geometry" />
        </mxCell>
        <mxCell id="AbXjkJ7tqVWqf835GHby-12" value="特征编码" style="rounded=1;whiteSpace=wrap;html=1;fontSize=12;glass=0;strokeWidth=1;shadow=0;" vertex="1" parent="WIyWlLk6GJQsqaUBKTNV-1">
          <mxGeometry x="780" y="1100" width="60" height="40" as="geometry" />
        </mxCell>
        <mxCell id="AbXjkJ7tqVWqf835GHby-15" style="edgeStyle=orthogonalEdgeStyle;rounded=0;orthogonalLoop=1;jettySize=auto;html=1;exitX=1;exitY=0.5;exitDx=0;exitDy=0;entryX=0;entryY=0.5;entryDx=0;entryDy=0;" edge="1" parent="WIyWlLk6GJQsqaUBKTNV-1" source="AbXjkJ7tqVWqf835GHby-16" target="AbXjkJ7tqVWqf835GHby-17">
          <mxGeometry relative="1" as="geometry" />
        </mxCell>
        <mxCell id="AbXjkJ7tqVWqf835GHby-16" value="输入解码" style="rounded=1;whiteSpace=wrap;html=1;fontSize=12;glass=0;strokeWidth=1;shadow=0;" vertex="1" parent="WIyWlLk6GJQsqaUBKTNV-1">
          <mxGeometry x="700" y="1220" width="60" height="40" as="geometry" />
        </mxCell>
        <mxCell id="AbXjkJ7tqVWqf835GHby-17" value="特征解码" style="rounded=1;whiteSpace=wrap;html=1;fontSize=12;glass=0;strokeWidth=1;shadow=0;" vertex="1" parent="WIyWlLk6GJQsqaUBKTNV-1">
          <mxGeometry x="780" y="1220" width="60" height="40" as="geometry" />
        </mxCell>
      </root>
    </mxGraphModel>
  </diagram>
</mxfile>
